<mxfile host="app.diagrams.net" modified="2022-03-22T04:49:04.418Z" agent="5.0 (Windows NT 10.0; Win64; x64) AppleWebKit/537.36 (KHTML, like Gecko) Chrome/99.0.4844.82 Safari/537.36" etag="yzsdcw7cxsbRmHXkhbJM" version="16.6.6" type="github">
  <diagram id="8NTqn93gWnW2YLTQEPx9" name="Page-1">
    <mxGraphModel dx="1422" dy="762" grid="1" gridSize="10" guides="1" tooltips="1" connect="1" arrows="1" fold="1" page="1" pageScale="1" pageWidth="850" pageHeight="1100" math="0" shadow="0">
      <root>
        <mxCell id="0" />
        <mxCell id="1" parent="0" />
        <mxCell id="WtAKPwelO9aeJDnpv6He-3" value="AWS Cloud" style="points=[[0,0],[0.25,0],[0.5,0],[0.75,0],[1,0],[1,0.25],[1,0.5],[1,0.75],[1,1],[0.75,1],[0.5,1],[0.25,1],[0,1],[0,0.75],[0,0.5],[0,0.25]];outlineConnect=0;gradientColor=none;html=1;whiteSpace=wrap;fontSize=12;fontStyle=0;container=1;pointerEvents=0;collapsible=0;recursiveResize=0;shape=mxgraph.aws4.group;grIcon=mxgraph.aws4.group_aws_cloud_alt;strokeColor=#232F3E;fillColor=none;verticalAlign=top;align=left;spacingLeft=30;fontColor=#232F3E;dashed=0;" vertex="1" parent="1">
          <mxGeometry x="100" y="80" width="730" height="660" as="geometry" />
        </mxCell>
        <mxCell id="WtAKPwelO9aeJDnpv6He-11" value="" style="group" vertex="1" connectable="0" parent="WtAKPwelO9aeJDnpv6He-3">
          <mxGeometry x="295" y="30" width="60" height="78" as="geometry" />
        </mxCell>
        <mxCell id="WtAKPwelO9aeJDnpv6He-9" value="" style="sketch=0;points=[[0,0,0],[0.25,0,0],[0.5,0,0],[0.75,0,0],[1,0,0],[0,1,0],[0.25,1,0],[0.5,1,0],[0.75,1,0],[1,1,0],[0,0.25,0],[0,0.5,0],[0,0.75,0],[1,0.25,0],[1,0.5,0],[1,0.75,0]];outlineConnect=0;fontColor=#232F3E;gradientColor=#945DF2;gradientDirection=north;fillColor=#5A30B5;strokeColor=#ffffff;dashed=0;verticalLabelPosition=bottom;verticalAlign=top;align=center;html=1;fontSize=12;fontStyle=0;aspect=fixed;shape=mxgraph.aws4.resourceIcon;resIcon=mxgraph.aws4.kinesis_data_firehose;" vertex="1" parent="WtAKPwelO9aeJDnpv6He-11">
          <mxGeometry x="6" width="48" height="48" as="geometry" />
        </mxCell>
        <mxCell id="WtAKPwelO9aeJDnpv6He-10" value="Kinesis Firehose" style="text;html=1;strokeColor=none;fillColor=none;align=center;verticalAlign=middle;whiteSpace=wrap;rounded=0;" vertex="1" parent="WtAKPwelO9aeJDnpv6He-11">
          <mxGeometry y="48" width="60" height="30" as="geometry" />
        </mxCell>
        <mxCell id="WtAKPwelO9aeJDnpv6He-12" value="" style="group" vertex="1" connectable="0" parent="1">
          <mxGeometry x="12.5" y="240" width="60" height="80" as="geometry" />
        </mxCell>
        <mxCell id="WtAKPwelO9aeJDnpv6He-4" value="" style="aspect=fixed;perimeter=ellipsePerimeter;html=1;align=center;shadow=0;dashed=0;spacingTop=3;image;image=img/lib/active_directory/laptop_client.svg;" vertex="1" parent="WtAKPwelO9aeJDnpv6He-12">
          <mxGeometry x="7.5" width="45" height="50" as="geometry" />
        </mxCell>
        <mxCell id="WtAKPwelO9aeJDnpv6He-5" value="Client" style="text;html=1;strokeColor=none;fillColor=none;align=center;verticalAlign=middle;whiteSpace=wrap;rounded=0;" vertex="1" parent="WtAKPwelO9aeJDnpv6He-12">
          <mxGeometry y="50" width="60" height="30" as="geometry" />
        </mxCell>
        <mxCell id="WtAKPwelO9aeJDnpv6He-13" value="" style="group" vertex="1" connectable="0" parent="1">
          <mxGeometry x="395.5" width="60" height="80" as="geometry" />
        </mxCell>
        <mxCell id="WtAKPwelO9aeJDnpv6He-6" value="" style="aspect=fixed;perimeter=ellipsePerimeter;html=1;align=center;shadow=0;dashed=0;spacingTop=3;image;image=img/lib/active_directory/laptop_client.svg;" vertex="1" parent="WtAKPwelO9aeJDnpv6He-13">
          <mxGeometry x="7.5" width="45" height="50" as="geometry" />
        </mxCell>
        <mxCell id="WtAKPwelO9aeJDnpv6He-7" value="Client" style="text;html=1;strokeColor=none;fillColor=none;align=center;verticalAlign=middle;whiteSpace=wrap;rounded=0;" vertex="1" parent="WtAKPwelO9aeJDnpv6He-13">
          <mxGeometry y="50" width="60" height="30" as="geometry" />
        </mxCell>
      </root>
    </mxGraphModel>
  </diagram>
</mxfile>
